<?xml version="1.0" encoding="UTF-8"?>
<svg xmlns="http://www.w3.org/2000/svg" xmlns:xlink="http://www.w3.org/1999/xlink" width="24" height="24" viewBox="0 0 24 24" version="1.1">
<g id="surface1">
<path style=" stroke:none;fill-rule:nonzero;fill:rgb(0%,0%,0%);fill-opacity:1;" d="M 16.96875 3.605469 C 17.25 4.246094 17.433594 5.304688 17.160156 6.078125 C 18.269531 7.027344 18.652344 9.332031 18.117188 11.214844 C 19.699219 11.335938 21.582031 11.15625 22.800781 11.640625 C 21.664062 11.496094 20.109375 11.207031 18.644531 11.308594 C 18.367188 11.328125 17.953125 11.296875 17.972656 11.6875 C 19.671875 11.820312 21.359375 11.96875 22.753906 12.402344 C 21.371094 12.175781 19.691406 11.832031 17.972656 11.785156 C 17.265625 13.183594 15.835938 13.875 13.863281 14.019531 C 14.078125 14.480469 14.480469 14.65625 14.582031 15.398438 C 14.730469 16.503906 14.351562 18.128906 14.722656 18.867188 C 14.902344 19.222656 15.195312 19.230469 15.394531 19.53125 C 14.910156 20.105469 13.714844 19.46875 13.578125 18.867188 C 13.34375 17.835938 13.933594 16.238281 13.289062 15.539062 C 13.335938 16.664062 13.023438 18.242188 13.339844 19.246094 C 13.460938 19.640625 13.820312 19.792969 13.722656 20.152344 C 11.476562 20.378906 12.414062 17.246094 12.046875 15.394531 C 11.710938 15.421875 11.859375 15.902344 11.855469 16.109375 C 11.847656 17.914062 12.226562 20.390625 10.28125 20.152344 C 10.222656 19.769531 10.542969 19.640625 10.664062 19.296875 C 11.015625 18.28125 10.597656 16.765625 10.757812 15.539062 C 10.015625 16.097656 10.835938 18.054688 10.375 19.058594 C 10.109375 19.632812 9.257812 19.886719 8.609375 19.628906 C 8.691406 19.199219 9.136719 19.265625 9.324219 18.867188 C 9.585938 18.308594 9.324219 17.503906 9.421875 16.679688 C 8.046875 16.953125 6.976562 16.640625 6.457031 15.777344 C 6.222656 15.390625 6.164062 14.933594 5.882812 14.589844 C 5.601562 14.246094 5.152344 14.199219 5.023438 13.734375 C 6.726562 13.324219 6.792969 15.484375 8.320312 15.539062 C 8.789062 15.554688 9.035156 15.402344 9.46875 15.300781 C 9.589844 14.757812 9.847656 14.351562 10.230469 14.066406 C 8.328125 13.804688 6.757812 13.210938 6.027344 11.785156 C 4.296875 11.871094 2.714844 12.101562 1.246094 12.449219 C 2.578125 11.964844 4.21875 11.792969 5.980469 11.734375 C 5.875 11.113281 4.964844 11.285156 4.402344 11.308594 C 3.355469 11.355469 2.035156 11.484375 1.199219 11.640625 C 2.40625 11.210938 4.105469 11.265625 5.742188 11.261719 C 5.238281 9.691406 5.414062 7.199219 6.503906 6.269531 C 6.195312 5.488281 6.292969 4.214844 6.695312 3.605469 C 7.914062 3.660156 8.652344 4.191406 9.421875 4.699219 C 10.371094 4.429688 11.367188 4.296875 12.667969 4.367188 C 13.21875 4.398438 13.785156 4.644531 14.199219 4.605469 C 14.601562 4.566406 15.046875 4.113281 15.441406 3.941406 C 15.953125 3.714844 16.386719 3.628906 16.96875 3.605469 "/>
</g>
</svg>
