<?xml version="1.0" encoding="UTF-8"?>
<svg xmlns="http://www.w3.org/2000/svg" xmlns:xlink="http://www.w3.org/1999/xlink" width="24" height="24" viewBox="0 0 24 24" version="1.1">
<g id="surface1">
<path style=" stroke:none;fill-rule:nonzero;fill:rgb(0%,0%,0%);fill-opacity:1;" d="M 22.800781 14.335938 L 22.800781 22.320312 L 18.171875 22.320312 L 18.171875 14.871094 C 18.171875 12.996094 17.5 11.71875 15.824219 11.71875 C 14.546875 11.71875 13.785156 12.582031 13.449219 13.414062 C 13.328125 13.710938 13.296875 14.125 13.296875 14.542969 L 13.296875 22.320312 L 8.664062 22.320312 C 8.664062 22.320312 8.726562 9.699219 8.664062 8.394531 L 13.296875 8.394531 L 13.296875 10.367188 C 13.285156 10.382812 13.273438 10.398438 13.265625 10.414062 L 13.296875 10.414062 L 13.296875 10.367188 C 13.910156 9.417969 15.007812 8.066406 17.46875 8.066406 C 20.515625 8.066406 22.800781 10.058594 22.800781 14.335938 M 3.820312 1.679688 C 2.234375 1.679688 1.199219 2.71875 1.199219 4.085938 C 1.199219 5.421875 2.207031 6.492188 3.757812 6.492188 L 3.789062 6.492188 C 5.40625 6.492188 6.410156 5.421875 6.410156 4.085938 C 6.378906 2.71875 5.40625 1.679688 3.820312 1.679688 M 1.476562 22.320312 L 6.105469 22.320312 L 6.105469 8.394531 L 1.476562 8.394531 Z M 1.476562 22.320312 "/>
</g>
</svg>
