<svg width="24" height="24" xmlns="http://www.w3.org/2000/svg">

 <g>
  <title>background</title>
  <rect fill="none" id="canvas_background" height="26" width="26" y="-1" x="-1"/>
 </g>
 <g>
  <title>Layer 1</title>
  <g stroke="null" id="svg_3">
   <g stroke="null" id="svg_4">
    <path stroke="null" id="svg_5" d="m1.943073,9.230045c-0.722663,3.099511 -0.222754,6.301398 1.407685,9.016208c2.137824,3.558884 5.854009,5.68424 9.941193,5.68424c2.148137,0 4.255023,-0.611617 6.093522,-1.768624c1.075615,-0.676526 2.032377,-1.524821 2.843987,-2.520084c0.181246,-0.222166 0.200324,-0.539057 0.047438,-0.782859c-0.152628,-0.243803 -0.441642,-0.35726 -0.715444,-0.28127c-0.755922,0.211348 -1.536851,0.317946 -2.322422,0.317946c-3.106446,0 -5.930323,-1.614004 -7.553801,-4.318524c-1.239845,-2.062823 -1.619869,-4.49689 -1.070459,-6.853648c0.54941,-2.35623 1.962251,-4.352033 3.979158,-5.620387c0.323819,-0.203433 0.673678,-0.391562 1.039779,-0.55911c0.258333,-0.117943 0.411993,-0.393672 0.379765,-0.680747c-0.032227,-0.287603 -0.243122,-0.520587 -0.520792,-0.575733c-0.731687,-0.144857 -1.479874,-0.217945 -2.223678,-0.217945c-2.147622,0 -4.25425,0.611089 -6.09249,1.767041c-2.652429,1.668886 -4.511036,4.294513 -5.233442,7.393496zm5.912018,-6.263667c1.633791,-1.027717 3.506063,-1.57126 5.413914,-1.57126c0.009024,0 0.017532,0.000528 0.026813,0.000528c-1.981071,1.455691 -3.36942,3.567591 -3.941259,6.020128c-0.629849,2.700825 -0.193879,5.491098 1.226954,7.855771c1.861186,3.099247 5.097314,4.94993 8.657519,4.94993c0.201871,0 0.404258,-0.006069 0.605872,-0.01847c-0.359914,0.302115 -0.739679,0.578635 -1.138007,0.829298c-1.634049,1.028509 -3.506321,1.572315 -5.414687,1.572315c-3.633683,0 -6.937359,-1.888678 -8.837475,-5.052306c-1.449451,-2.412959 -1.893671,-5.259169 -1.251447,-8.013821c0.641966,-2.75518 2.294062,-5.088982 4.651805,-6.572114z"/>
   </g>
  </g>
 </g>
</svg>