<?xml version="1.0" encoding="UTF-8"?>
<svg xmlns="http://www.w3.org/2000/svg" xmlns:xlink="http://www.w3.org/1999/xlink" width="24" height="24" viewBox="0 0 24 24" version="1.1">
<g id="surface1">
<path style=" stroke:none;fill-rule:nonzero;fill:rgb(0%,0%,0%);fill-opacity:1;" d="M 7.546875 21.75 C 16.605469 21.75 21.558594 14.246094 21.558594 7.742188 C 21.558594 7.527344 21.558594 7.316406 21.542969 7.105469 C 22.507812 6.40625 23.339844 5.542969 24 4.554688 C 23.101562 4.953125 22.148438 5.214844 21.171875 5.328125 C 22.199219 4.714844 22.96875 3.746094 23.335938 2.605469 C 22.371094 3.179688 21.3125 3.585938 20.210938 3.800781 C 19.277344 2.8125 17.980469 2.25 16.621094 2.25 C 13.914062 2.25 11.691406 4.472656 11.691406 7.179688 C 11.691406 7.554688 11.734375 7.925781 11.820312 8.292969 C 7.863281 8.09375 4.167969 6.222656 1.671875 3.148438 C 0.371094 5.386719 1.042969 8.285156 3.195312 9.722656 C 2.410156 9.699219 1.644531 9.484375 0.960938 9.105469 L 0.960938 9.167969 C 0.960938 11.5 2.621094 13.53125 4.910156 13.992188 C 4.183594 14.191406 3.425781 14.21875 2.6875 14.078125 C 3.332031 16.078125 5.1875 17.457031 7.289062 17.496094 C 5.542969 18.867188 3.390625 19.613281 1.171875 19.609375 C 0.78125 19.609375 0.390625 19.585938 0 19.539062 C 2.25 20.984375 4.871094 21.75 7.546875 21.746094 "/>
</g>
</svg>
